<mxfile host="app.diagrams.net" agent="Mozilla/5.0 (Macintosh; Intel Mac OS X 10_15_7) AppleWebKit/537.36 (KHTML, like Gecko) Chrome/139.0.0.0 Safari/537.36" version="28.1.0">
  <diagram name="第 1 页" id="qLG8cJmZxrwSkcStaCnF">
    <mxGraphModel dx="2212" dy="956" grid="0" gridSize="10" guides="1" tooltips="1" connect="1" arrows="1" fold="1" page="1" pageScale="1" pageWidth="827" pageHeight="1169" math="0" shadow="0">
      <root>
        <mxCell id="0" />
        <mxCell id="1" parent="0" />
        <mxCell id="Af63RQCoWhY6OaajXl5Q-11" style="rounded=0;orthogonalLoop=1;jettySize=auto;html=1;exitX=0.25;exitY=0;exitDx=0;exitDy=0;" edge="1" parent="1" source="Af63RQCoWhY6OaajXl5Q-5" target="Af63RQCoWhY6OaajXl5Q-6">
          <mxGeometry relative="1" as="geometry" />
        </mxCell>
        <mxCell id="Af63RQCoWhY6OaajXl5Q-12" style="rounded=0;orthogonalLoop=1;jettySize=auto;html=1;exitX=0.75;exitY=0;exitDx=0;exitDy=0;" edge="1" parent="1" source="Af63RQCoWhY6OaajXl5Q-5" target="Af63RQCoWhY6OaajXl5Q-7">
          <mxGeometry relative="1" as="geometry" />
        </mxCell>
        <mxCell id="Af63RQCoWhY6OaajXl5Q-13" style="edgeStyle=orthogonalEdgeStyle;rounded=0;orthogonalLoop=1;jettySize=auto;html=1;exitX=1;exitY=0.5;exitDx=0;exitDy=0;" edge="1" parent="1" source="Af63RQCoWhY6OaajXl5Q-5" target="Af63RQCoWhY6OaajXl5Q-8">
          <mxGeometry relative="1" as="geometry" />
        </mxCell>
        <mxCell id="Af63RQCoWhY6OaajXl5Q-14" style="rounded=0;orthogonalLoop=1;jettySize=auto;html=1;exitX=0.75;exitY=1;exitDx=0;exitDy=0;" edge="1" parent="1" source="Af63RQCoWhY6OaajXl5Q-5" target="Af63RQCoWhY6OaajXl5Q-9">
          <mxGeometry relative="1" as="geometry" />
        </mxCell>
        <mxCell id="Af63RQCoWhY6OaajXl5Q-15" style="rounded=0;orthogonalLoop=1;jettySize=auto;html=1;exitX=0.25;exitY=1;exitDx=0;exitDy=0;" edge="1" parent="1" source="Af63RQCoWhY6OaajXl5Q-5" target="Af63RQCoWhY6OaajXl5Q-10">
          <mxGeometry relative="1" as="geometry" />
        </mxCell>
        <mxCell id="Af63RQCoWhY6OaajXl5Q-5" value="OrderList" style="rounded=0;whiteSpace=wrap;html=1;" vertex="1" parent="1">
          <mxGeometry x="300" y="150" width="190" height="70" as="geometry" />
        </mxCell>
        <mxCell id="Af63RQCoWhY6OaajXl5Q-6" value="业务员" style="ellipse;whiteSpace=wrap;html=1;aspect=fixed;" vertex="1" parent="1">
          <mxGeometry x="264" y="20" width="80" height="80" as="geometry" />
        </mxCell>
        <mxCell id="Af63RQCoWhY6OaajXl5Q-7" value="业务助理" style="ellipse;whiteSpace=wrap;html=1;aspect=fixed;" vertex="1" parent="1">
          <mxGeometry x="440" y="20" width="80" height="80" as="geometry" />
        </mxCell>
        <mxCell id="Af63RQCoWhY6OaajXl5Q-8" value="制单员" style="ellipse;whiteSpace=wrap;html=1;aspect=fixed;" vertex="1" parent="1">
          <mxGeometry x="550" y="145" width="80" height="80" as="geometry" />
        </mxCell>
        <mxCell id="Af63RQCoWhY6OaajXl5Q-9" value="QC" style="ellipse;whiteSpace=wrap;html=1;aspect=fixed;" vertex="1" parent="1">
          <mxGeometry x="440" y="300" width="80" height="80" as="geometry" />
        </mxCell>
        <mxCell id="Af63RQCoWhY6OaajXl5Q-10" value="供应链" style="ellipse;whiteSpace=wrap;html=1;aspect=fixed;" vertex="1" parent="1">
          <mxGeometry x="260" y="290" width="80" height="80" as="geometry" />
        </mxCell>
        <mxCell id="Af63RQCoWhY6OaajXl5Q-45" style="edgeStyle=orthogonalEdgeStyle;rounded=0;orthogonalLoop=1;jettySize=auto;html=1;entryX=0;entryY=0.5;entryDx=0;entryDy=0;" edge="1" parent="1" source="Af63RQCoWhY6OaajXl5Q-16" target="Af63RQCoWhY6OaajXl5Q-28">
          <mxGeometry relative="1" as="geometry" />
        </mxCell>
        <mxCell id="Af63RQCoWhY6OaajXl5Q-16" value="客户下单" style="rounded=0;whiteSpace=wrap;html=1;fillColor=#dae8fc;strokeColor=#6c8ebf;" vertex="1" parent="1">
          <mxGeometry x="80" y="487" width="90" height="40" as="geometry" />
        </mxCell>
        <mxCell id="Af63RQCoWhY6OaajXl5Q-46" style="edgeStyle=orthogonalEdgeStyle;rounded=0;orthogonalLoop=1;jettySize=auto;html=1;" edge="1" parent="1" source="Af63RQCoWhY6OaajXl5Q-19" target="Af63RQCoWhY6OaajXl5Q-24">
          <mxGeometry relative="1" as="geometry" />
        </mxCell>
        <mxCell id="Af63RQCoWhY6OaajXl5Q-19" value="工厂下单" style="rounded=0;whiteSpace=wrap;html=1;fillColor=#dae8fc;strokeColor=#6c8ebf;" vertex="1" parent="1">
          <mxGeometry x="240" y="607" width="90" height="40" as="geometry" />
        </mxCell>
        <mxCell id="Af63RQCoWhY6OaajXl5Q-20" value="大货生产" style="rounded=0;whiteSpace=wrap;html=1;fillColor=#dae8fc;strokeColor=#6c8ebf;" vertex="1" parent="1">
          <mxGeometry x="330" y="677" width="190" height="40" as="geometry" />
        </mxCell>
        <mxCell id="Af63RQCoWhY6OaajXl5Q-21" value="质检" style="rounded=0;whiteSpace=wrap;html=1;fillColor=#dae8fc;strokeColor=#6c8ebf;" vertex="1" parent="1">
          <mxGeometry x="520" y="737" width="90" height="40" as="geometry" />
        </mxCell>
        <mxCell id="Af63RQCoWhY6OaajXl5Q-47" style="edgeStyle=orthogonalEdgeStyle;rounded=0;orthogonalLoop=1;jettySize=auto;html=1;entryX=0;entryY=0.5;entryDx=0;entryDy=0;" edge="1" parent="1" source="Af63RQCoWhY6OaajXl5Q-22" target="Af63RQCoWhY6OaajXl5Q-26">
          <mxGeometry relative="1" as="geometry" />
        </mxCell>
        <mxCell id="Af63RQCoWhY6OaajXl5Q-22" value="订舱/放舱" style="rounded=0;whiteSpace=wrap;html=1;fillColor=#dae8fc;strokeColor=#6c8ebf;" vertex="1" parent="1">
          <mxGeometry x="450" y="787" width="160" height="40" as="geometry" />
        </mxCell>
        <mxCell id="Af63RQCoWhY6OaajXl5Q-24" value="在货跟单" style="rounded=0;whiteSpace=wrap;html=1;fillColor=#dae8fc;strokeColor=#6c8ebf;" vertex="1" parent="1">
          <mxGeometry x="344" y="607" width="546" height="40" as="geometry" />
        </mxCell>
        <mxCell id="Af63RQCoWhY6OaajXl5Q-25" value="打样" style="rounded=0;whiteSpace=wrap;html=1;fillColor=#dae8fc;strokeColor=#6c8ebf;" vertex="1" parent="1">
          <mxGeometry x="130" y="547" width="90" height="40" as="geometry" />
        </mxCell>
        <mxCell id="Af63RQCoWhY6OaajXl5Q-48" style="edgeStyle=orthogonalEdgeStyle;rounded=0;orthogonalLoop=1;jettySize=auto;html=1;entryX=0;entryY=0.5;entryDx=0;entryDy=0;" edge="1" parent="1" source="Af63RQCoWhY6OaajXl5Q-26" target="Af63RQCoWhY6OaajXl5Q-27">
          <mxGeometry relative="1" as="geometry" />
        </mxCell>
        <mxCell id="Af63RQCoWhY6OaajXl5Q-26" value="出货" style="rounded=0;whiteSpace=wrap;html=1;fillColor=#dae8fc;strokeColor=#6c8ebf;" vertex="1" parent="1">
          <mxGeometry x="630" y="787" width="120" height="40" as="geometry" />
        </mxCell>
        <mxCell id="Af63RQCoWhY6OaajXl5Q-27" value="单证/电放" style="rounded=0;whiteSpace=wrap;html=1;fillColor=#dae8fc;strokeColor=#6c8ebf;" vertex="1" parent="1">
          <mxGeometry x="770" y="787" width="120" height="40" as="geometry" />
        </mxCell>
        <mxCell id="Af63RQCoWhY6OaajXl5Q-28" value="业务跟单" style="rounded=0;whiteSpace=wrap;html=1;fillColor=#dae8fc;strokeColor=#6c8ebf;" vertex="1" parent="1">
          <mxGeometry x="190" y="487" width="700" height="40" as="geometry" />
        </mxCell>
        <mxCell id="Af63RQCoWhY6OaajXl5Q-29" value="业务" style="ellipse;whiteSpace=wrap;html=1;aspect=fixed;fillColor=#e1d5e7;strokeColor=#9673a6;" vertex="1" parent="1">
          <mxGeometry x="10" y="482" width="50" height="50" as="geometry" />
        </mxCell>
        <mxCell id="Af63RQCoWhY6OaajXl5Q-30" value="业务&lt;div&gt;助理&lt;/div&gt;" style="ellipse;whiteSpace=wrap;html=1;aspect=fixed;fillColor=#e1d5e7;strokeColor=#9673a6;" vertex="1" parent="1">
          <mxGeometry x="10" y="542" width="50" height="50" as="geometry" />
        </mxCell>
        <mxCell id="Af63RQCoWhY6OaajXl5Q-31" value="制单员" style="ellipse;whiteSpace=wrap;html=1;aspect=fixed;fillColor=#e1d5e7;strokeColor=#9673a6;" vertex="1" parent="1">
          <mxGeometry x="10" y="602" width="50" height="50" as="geometry" />
        </mxCell>
        <mxCell id="Af63RQCoWhY6OaajXl5Q-32" value="工厂" style="ellipse;whiteSpace=wrap;html=1;aspect=fixed;fillColor=#e1d5e7;strokeColor=#9673a6;" vertex="1" parent="1">
          <mxGeometry x="10" y="667" width="50" height="50" as="geometry" />
        </mxCell>
        <mxCell id="Af63RQCoWhY6OaajXl5Q-33" value="QC" style="ellipse;whiteSpace=wrap;html=1;aspect=fixed;fillColor=#e1d5e7;strokeColor=#9673a6;" vertex="1" parent="1">
          <mxGeometry x="10" y="727" width="50" height="50" as="geometry" />
        </mxCell>
        <mxCell id="Af63RQCoWhY6OaajXl5Q-34" value="船务" style="ellipse;whiteSpace=wrap;html=1;aspect=fixed;fillColor=#e1d5e7;strokeColor=#9673a6;" vertex="1" parent="1">
          <mxGeometry x="10" y="782" width="50" height="50" as="geometry" />
        </mxCell>
        <mxCell id="Af63RQCoWhY6OaajXl5Q-35" value="财务" style="ellipse;whiteSpace=wrap;html=1;aspect=fixed;fillColor=#e1d5e7;strokeColor=#9673a6;" vertex="1" parent="1">
          <mxGeometry x="10" y="837" width="50" height="50" as="geometry" />
        </mxCell>
        <mxCell id="Af63RQCoWhY6OaajXl5Q-49" style="edgeStyle=orthogonalEdgeStyle;rounded=0;orthogonalLoop=1;jettySize=auto;html=1;entryX=0;entryY=0.5;entryDx=0;entryDy=0;" edge="1" parent="1" source="Af63RQCoWhY6OaajXl5Q-36" target="Af63RQCoWhY6OaajXl5Q-37">
          <mxGeometry relative="1" as="geometry" />
        </mxCell>
        <mxCell id="Af63RQCoWhY6OaajXl5Q-36" value="概算" style="rounded=0;whiteSpace=wrap;html=1;fillColor=#dae8fc;strokeColor=#6c8ebf;" vertex="1" parent="1">
          <mxGeometry x="80" y="842" width="160" height="40" as="geometry" />
        </mxCell>
        <mxCell id="Af63RQCoWhY6OaajXl5Q-50" style="edgeStyle=orthogonalEdgeStyle;rounded=0;orthogonalLoop=1;jettySize=auto;html=1;entryX=0;entryY=0.5;entryDx=0;entryDy=0;" edge="1" parent="1" source="Af63RQCoWhY6OaajXl5Q-37" target="Af63RQCoWhY6OaajXl5Q-38">
          <mxGeometry relative="1" as="geometry" />
        </mxCell>
        <mxCell id="Af63RQCoWhY6OaajXl5Q-37" value="预算" style="rounded=0;whiteSpace=wrap;html=1;fillColor=#dae8fc;strokeColor=#6c8ebf;" vertex="1" parent="1">
          <mxGeometry x="280" y="842" width="140" height="40" as="geometry" />
        </mxCell>
        <mxCell id="Af63RQCoWhY6OaajXl5Q-51" style="edgeStyle=orthogonalEdgeStyle;rounded=0;orthogonalLoop=1;jettySize=auto;html=1;entryX=0;entryY=0.5;entryDx=0;entryDy=0;" edge="1" parent="1" source="Af63RQCoWhY6OaajXl5Q-38" target="Af63RQCoWhY6OaajXl5Q-39">
          <mxGeometry relative="1" as="geometry" />
        </mxCell>
        <mxCell id="Af63RQCoWhY6OaajXl5Q-38" value="核算" style="rounded=0;whiteSpace=wrap;html=1;fillColor=#dae8fc;strokeColor=#6c8ebf;" vertex="1" parent="1">
          <mxGeometry x="460" y="842" width="190" height="40" as="geometry" />
        </mxCell>
        <mxCell id="Af63RQCoWhY6OaajXl5Q-39" value="决算" style="rounded=0;whiteSpace=wrap;html=1;fillColor=#dae8fc;strokeColor=#6c8ebf;" vertex="1" parent="1">
          <mxGeometry x="710" y="842" width="180" height="40" as="geometry" />
        </mxCell>
        <mxCell id="Af63RQCoWhY6OaajXl5Q-40" value="管理" style="ellipse;whiteSpace=wrap;html=1;aspect=fixed;fillColor=#e1d5e7;strokeColor=#9673a6;" vertex="1" parent="1">
          <mxGeometry x="10" y="897" width="50" height="50" as="geometry" />
        </mxCell>
        <mxCell id="Af63RQCoWhY6OaajXl5Q-52" style="edgeStyle=orthogonalEdgeStyle;rounded=0;orthogonalLoop=1;jettySize=auto;html=1;entryX=0;entryY=0.5;entryDx=0;entryDy=0;" edge="1" parent="1" source="Af63RQCoWhY6OaajXl5Q-41" target="Af63RQCoWhY6OaajXl5Q-42">
          <mxGeometry relative="1" as="geometry" />
        </mxCell>
        <mxCell id="Af63RQCoWhY6OaajXl5Q-41" value="订单审核" style="rounded=0;whiteSpace=wrap;html=1;fillColor=#dae8fc;strokeColor=#6c8ebf;" vertex="1" parent="1">
          <mxGeometry x="80" y="902" width="160" height="40" as="geometry" />
        </mxCell>
        <mxCell id="Af63RQCoWhY6OaajXl5Q-53" style="edgeStyle=orthogonalEdgeStyle;rounded=0;orthogonalLoop=1;jettySize=auto;html=1;entryX=0;entryY=0.5;entryDx=0;entryDy=0;" edge="1" parent="1" source="Af63RQCoWhY6OaajXl5Q-42" target="Af63RQCoWhY6OaajXl5Q-43">
          <mxGeometry relative="1" as="geometry" />
        </mxCell>
        <mxCell id="Af63RQCoWhY6OaajXl5Q-42" value="生产单审核" style="rounded=0;whiteSpace=wrap;html=1;fillColor=#dae8fc;strokeColor=#6c8ebf;" vertex="1" parent="1">
          <mxGeometry x="280" y="902" width="160" height="40" as="geometry" />
        </mxCell>
        <mxCell id="Af63RQCoWhY6OaajXl5Q-54" style="edgeStyle=orthogonalEdgeStyle;rounded=0;orthogonalLoop=1;jettySize=auto;html=1;entryX=0;entryY=0.5;entryDx=0;entryDy=0;" edge="1" parent="1" source="Af63RQCoWhY6OaajXl5Q-43" target="Af63RQCoWhY6OaajXl5Q-44">
          <mxGeometry relative="1" as="geometry" />
        </mxCell>
        <mxCell id="Af63RQCoWhY6OaajXl5Q-43" value="合同审批" style="rounded=0;whiteSpace=wrap;html=1;fillColor=#dae8fc;strokeColor=#6c8ebf;" vertex="1" parent="1">
          <mxGeometry x="470" y="902" width="160" height="40" as="geometry" />
        </mxCell>
        <mxCell id="Af63RQCoWhY6OaajXl5Q-44" value="收益检视" style="rounded=0;whiteSpace=wrap;html=1;fillColor=#dae8fc;strokeColor=#6c8ebf;" vertex="1" parent="1">
          <mxGeometry x="710" y="902" width="180" height="40" as="geometry" />
        </mxCell>
        <mxCell id="Af63RQCoWhY6OaajXl5Q-56" value="" style="shape=flexArrow;endArrow=classic;startArrow=classic;html=1;rounded=0;width=34.285714285714285;endSize=18.61904761904762;endWidth=34.5578231292517;startSize=17.357142857142858;startWidth=46.93877551020409;fillColor=#d5e8d4;strokeColor=#82b366;" edge="1" parent="1">
          <mxGeometry width="100" height="100" relative="1" as="geometry">
            <mxPoint x="-30" y="947" as="sourcePoint" />
            <mxPoint x="-30" y="477" as="targetPoint" />
          </mxGeometry>
        </mxCell>
        <mxCell id="Af63RQCoWhY6OaajXl5Q-57" value="" style="shape=flexArrow;endArrow=classic;html=1;rounded=0;width=44;endSize=19;endWidth=24;fillColor=#f8cecc;strokeColor=#b85450;" edge="1" parent="1">
          <mxGeometry width="50" height="50" relative="1" as="geometry">
            <mxPoint x="940" y="487" as="sourcePoint" />
            <mxPoint x="940" y="947" as="targetPoint" />
          </mxGeometry>
        </mxCell>
        <mxCell id="Af63RQCoWhY6OaajXl5Q-63" value="订&lt;div&gt;单&lt;/div&gt;&lt;div&gt;流&lt;/div&gt;" style="text;html=1;align=center;verticalAlign=middle;whiteSpace=wrap;rounded=0;" vertex="1" parent="1">
          <mxGeometry x="950" y="667" width="60" height="30" as="geometry" />
        </mxCell>
        <mxCell id="Af63RQCoWhY6OaajXl5Q-64" value="协&lt;div&gt;作&lt;/div&gt;&lt;div&gt;流&lt;/div&gt;" style="text;html=1;align=center;verticalAlign=middle;whiteSpace=wrap;rounded=0;" vertex="1" parent="1">
          <mxGeometry x="-90" y="677" width="60" height="30" as="geometry" />
        </mxCell>
        <mxCell id="Af63RQCoWhY6OaajXl5Q-86" style="edgeStyle=orthogonalEdgeStyle;rounded=0;orthogonalLoop=1;jettySize=auto;html=1;exitX=1;exitY=0.5;exitDx=0;exitDy=0;" edge="1" parent="1" source="Af63RQCoWhY6OaajXl5Q-68" target="Af63RQCoWhY6OaajXl5Q-82">
          <mxGeometry relative="1" as="geometry" />
        </mxCell>
        <mxCell id="Af63RQCoWhY6OaajXl5Q-68" value="子上超级&lt;div&gt;外贸引擎&lt;/div&gt;" style="rounded=0;whiteSpace=wrap;html=1;fillColor=#dae8fc;strokeColor=#6c8ebf;verticalAlign=top;" vertex="1" parent="1">
          <mxGeometry x="374" y="1306" width="91" height="230" as="geometry" />
        </mxCell>
        <mxCell id="Af63RQCoWhY6OaajXl5Q-69" value="全球市场" style="ellipse;whiteSpace=wrap;html=1;aspect=fixed;" vertex="1" parent="1">
          <mxGeometry x="-175" y="1257" width="328" height="328" as="geometry" />
        </mxCell>
        <mxCell id="Af63RQCoWhY6OaajXl5Q-70" value="南非" style="ellipse;whiteSpace=wrap;html=1;aspect=fixed;" vertex="1" parent="1">
          <mxGeometry x="-121" y="1348" width="55" height="55" as="geometry" />
        </mxCell>
        <mxCell id="Af63RQCoWhY6OaajXl5Q-71" value="英国" style="ellipse;whiteSpace=wrap;html=1;aspect=fixed;" vertex="1" parent="1">
          <mxGeometry x="-33" y="1294" width="111" height="111" as="geometry" />
        </mxCell>
        <mxCell id="Af63RQCoWhY6OaajXl5Q-72" value="美国" style="ellipse;whiteSpace=wrap;html=1;aspect=fixed;" vertex="1" parent="1">
          <mxGeometry x="-128" y="1444" width="91" height="91" as="geometry" />
        </mxCell>
        <mxCell id="Af63RQCoWhY6OaajXl5Q-73" value="东南亚" style="ellipse;whiteSpace=wrap;html=1;aspect=fixed;" vertex="1" parent="1">
          <mxGeometry x="-4" y="1492" width="62" height="62" as="geometry" />
        </mxCell>
        <mxCell id="Af63RQCoWhY6OaajXl5Q-74" value="中亚" style="ellipse;whiteSpace=wrap;html=1;aspect=fixed;" vertex="1" parent="1">
          <mxGeometry x="71" y="1417" width="57" height="57" as="geometry" />
        </mxCell>
        <mxCell id="Af63RQCoWhY6OaajXl5Q-75" value="全国优质产能" style="ellipse;whiteSpace=wrap;html=1;aspect=fixed;" vertex="1" parent="1">
          <mxGeometry x="698" y="1256" width="330" height="330" as="geometry" />
        </mxCell>
        <mxCell id="Af63RQCoWhY6OaajXl5Q-76" value="温岭" style="ellipse;whiteSpace=wrap;html=1;aspect=fixed;" vertex="1" parent="1">
          <mxGeometry x="757" y="1300" width="80" height="80" as="geometry" />
        </mxCell>
        <mxCell id="Af63RQCoWhY6OaajXl5Q-77" value="广东" style="ellipse;whiteSpace=wrap;html=1;aspect=fixed;" vertex="1" parent="1">
          <mxGeometry x="864" y="1283" width="80" height="80" as="geometry" />
        </mxCell>
        <mxCell id="Af63RQCoWhY6OaajXl5Q-78" value="宁波" style="ellipse;whiteSpace=wrap;html=1;aspect=fixed;" vertex="1" parent="1">
          <mxGeometry x="753" y="1435" width="80" height="80" as="geometry" />
        </mxCell>
        <mxCell id="Af63RQCoWhY6OaajXl5Q-79" value="福州" style="ellipse;whiteSpace=wrap;html=1;aspect=fixed;" vertex="1" parent="1">
          <mxGeometry x="858" y="1464" width="80" height="80" as="geometry" />
        </mxCell>
        <mxCell id="Af63RQCoWhY6OaajXl5Q-80" value="潮州" style="ellipse;whiteSpace=wrap;html=1;aspect=fixed;" vertex="1" parent="1">
          <mxGeometry x="928" y="1384" width="80" height="80" as="geometry" />
        </mxCell>
        <mxCell id="Af63RQCoWhY6OaajXl5Q-84" style="edgeStyle=orthogonalEdgeStyle;rounded=0;orthogonalLoop=1;jettySize=auto;html=1;entryX=1;entryY=0.5;entryDx=0;entryDy=0;" edge="1" parent="1" source="Af63RQCoWhY6OaajXl5Q-81" target="Af63RQCoWhY6OaajXl5Q-69">
          <mxGeometry relative="1" as="geometry" />
        </mxCell>
        <mxCell id="Af63RQCoWhY6OaajXl5Q-85" style="edgeStyle=orthogonalEdgeStyle;rounded=0;orthogonalLoop=1;jettySize=auto;html=1;exitX=1;exitY=0.5;exitDx=0;exitDy=0;" edge="1" parent="1" source="Af63RQCoWhY6OaajXl5Q-81" target="Af63RQCoWhY6OaajXl5Q-68">
          <mxGeometry relative="1" as="geometry" />
        </mxCell>
        <mxCell id="Af63RQCoWhY6OaajXl5Q-81" value="市场网关" style="rounded=0;whiteSpace=wrap;html=1;fillColor=#dae8fc;strokeColor=#6c8ebf;" vertex="1" parent="1">
          <mxGeometry x="223" y="1366.5" width="91" height="109" as="geometry" />
        </mxCell>
        <mxCell id="Af63RQCoWhY6OaajXl5Q-83" style="edgeStyle=orthogonalEdgeStyle;rounded=0;orthogonalLoop=1;jettySize=auto;html=1;entryX=0;entryY=0.5;entryDx=0;entryDy=0;" edge="1" parent="1" source="Af63RQCoWhY6OaajXl5Q-82" target="Af63RQCoWhY6OaajXl5Q-75">
          <mxGeometry relative="1" as="geometry" />
        </mxCell>
        <mxCell id="Af63RQCoWhY6OaajXl5Q-82" value="产能网关" style="rounded=0;whiteSpace=wrap;html=1;fillColor=#dae8fc;strokeColor=#6c8ebf;" vertex="1" parent="1">
          <mxGeometry x="539" y="1366.5" width="91" height="109" as="geometry" />
        </mxCell>
        <mxCell id="Af63RQCoWhY6OaajXl5Q-87" value="业务员" style="ellipse;whiteSpace=wrap;html=1;aspect=fixed;fillColor=#f8cecc;strokeColor=#b85450;" vertex="1" parent="1">
          <mxGeometry x="203" y="1333" width="57" height="57" as="geometry" />
        </mxCell>
        <mxCell id="Af63RQCoWhY6OaajXl5Q-88" value="业务员" style="ellipse;whiteSpace=wrap;html=1;aspect=fixed;fontSize=8;fillColor=#f8cecc;strokeColor=#b85450;" vertex="1" parent="1">
          <mxGeometry x="240" y="1314" width="40" height="40" as="geometry" />
        </mxCell>
        <mxCell id="Af63RQCoWhY6OaajXl5Q-89" value="业务员" style="ellipse;whiteSpace=wrap;html=1;aspect=fixed;fontSize=8;fillColor=#f8cecc;strokeColor=#b85450;" vertex="1" parent="1">
          <mxGeometry x="253" y="1340" width="40" height="40" as="geometry" />
        </mxCell>
        <mxCell id="Af63RQCoWhY6OaajXl5Q-90" value="业务员" style="ellipse;whiteSpace=wrap;html=1;aspect=fixed;fontSize=12;fillColor=#f8cecc;strokeColor=#b85450;" vertex="1" parent="1">
          <mxGeometry x="286" y="1337" width="59" height="59" as="geometry" />
        </mxCell>
        <mxCell id="Af63RQCoWhY6OaajXl5Q-92" value="制单员" style="ellipse;whiteSpace=wrap;html=1;aspect=fixed;fontSize=8;fillColor=#d5e8d4;strokeColor=#82b366;" vertex="1" parent="1">
          <mxGeometry x="563" y="1316" width="43" height="43" as="geometry" />
        </mxCell>
        <mxCell id="Af63RQCoWhY6OaajXl5Q-91" value="制单员" style="ellipse;whiteSpace=wrap;html=1;aspect=fixed;fontSize=12;fillColor=#d5e8d4;strokeColor=#82b366;" vertex="1" parent="1">
          <mxGeometry x="520" y="1321" width="59" height="59" as="geometry" />
        </mxCell>
        <mxCell id="Af63RQCoWhY6OaajXl5Q-93" value="制单员" style="ellipse;whiteSpace=wrap;html=1;aspect=fixed;fontSize=8;fillColor=#d5e8d4;strokeColor=#82b366;" vertex="1" parent="1">
          <mxGeometry x="591" y="1337" width="43" height="43" as="geometry" />
        </mxCell>
        <mxCell id="Af63RQCoWhY6OaajXl5Q-97" style="edgeStyle=orthogonalEdgeStyle;rounded=0;orthogonalLoop=1;jettySize=auto;html=1;entryX=0.5;entryY=0;entryDx=0;entryDy=0;" edge="1" parent="1" source="Af63RQCoWhY6OaajXl5Q-94" target="Af63RQCoWhY6OaajXl5Q-95">
          <mxGeometry relative="1" as="geometry" />
        </mxCell>
        <mxCell id="Af63RQCoWhY6OaajXl5Q-94" value="接单" style="rounded=0;whiteSpace=wrap;html=1;fillColor=#5B96FC;strokeColor=none;fontColor=#FFFFFF;" vertex="1" parent="1">
          <mxGeometry x="378" y="1348" width="84" height="27" as="geometry" />
        </mxCell>
        <mxCell id="Af63RQCoWhY6OaajXl5Q-98" style="edgeStyle=orthogonalEdgeStyle;rounded=0;orthogonalLoop=1;jettySize=auto;html=1;entryX=0.5;entryY=0;entryDx=0;entryDy=0;" edge="1" parent="1" source="Af63RQCoWhY6OaajXl5Q-95" target="Af63RQCoWhY6OaajXl5Q-96">
          <mxGeometry relative="1" as="geometry" />
        </mxCell>
        <mxCell id="Af63RQCoWhY6OaajXl5Q-95" value="查找产能" style="rounded=0;whiteSpace=wrap;html=1;fillColor=#5B96FC;strokeColor=none;fontColor=#FFFFFF;" vertex="1" parent="1">
          <mxGeometry x="378" y="1408" width="83" height="27" as="geometry" />
        </mxCell>
        <mxCell id="Af63RQCoWhY6OaajXl5Q-96" value="分配工厂" style="rounded=0;whiteSpace=wrap;html=1;fillColor=#5B96FC;strokeColor=none;fontColor=#FFFFFF;" vertex="1" parent="1">
          <mxGeometry x="378" y="1469" width="83" height="27" as="geometry" />
        </mxCell>
        <mxCell id="Af63RQCoWhY6OaajXl5Q-102" style="edgeStyle=orthogonalEdgeStyle;rounded=0;orthogonalLoop=1;jettySize=auto;html=1;entryX=0;entryY=0.5;entryDx=0;entryDy=0;" edge="1" parent="1" source="Af63RQCoWhY6OaajXl5Q-99" target="Af63RQCoWhY6OaajXl5Q-100">
          <mxGeometry relative="1" as="geometry" />
        </mxCell>
        <mxCell id="Af63RQCoWhY6OaajXl5Q-99" value="流程打通" style="rounded=0;whiteSpace=wrap;html=1;fillColor=#dae8fc;strokeColor=#6c8ebf;" vertex="1" parent="1">
          <mxGeometry x="84" y="1737" width="91" height="109" as="geometry" />
        </mxCell>
        <mxCell id="Af63RQCoWhY6OaajXl5Q-103" style="edgeStyle=orthogonalEdgeStyle;rounded=0;orthogonalLoop=1;jettySize=auto;html=1;exitX=1;exitY=0.5;exitDx=0;exitDy=0;entryX=0;entryY=0.5;entryDx=0;entryDy=0;" edge="1" parent="1" source="Af63RQCoWhY6OaajXl5Q-100" target="Af63RQCoWhY6OaajXl5Q-101">
          <mxGeometry relative="1" as="geometry" />
        </mxCell>
        <mxCell id="Af63RQCoWhY6OaajXl5Q-100" value="绩效打通" style="rounded=0;whiteSpace=wrap;html=1;fillColor=#dae8fc;strokeColor=#6c8ebf;" vertex="1" parent="1">
          <mxGeometry x="240" y="1737" width="91" height="109" as="geometry" />
        </mxCell>
        <mxCell id="Af63RQCoWhY6OaajXl5Q-101" value="优质工厂" style="rounded=0;whiteSpace=wrap;html=1;fillColor=#dae8fc;strokeColor=#6c8ebf;" vertex="1" parent="1">
          <mxGeometry x="396" y="1737" width="91" height="109" as="geometry" />
        </mxCell>
        <mxCell id="Af63RQCoWhY6OaajXl5Q-104" style="edgeStyle=orthogonalEdgeStyle;rounded=0;orthogonalLoop=1;jettySize=auto;html=1;entryX=0;entryY=0.5;entryDx=0;entryDy=0;" edge="1" source="Af63RQCoWhY6OaajXl5Q-105" target="Af63RQCoWhY6OaajXl5Q-107" parent="1">
          <mxGeometry relative="1" as="geometry" />
        </mxCell>
        <mxCell id="Af63RQCoWhY6OaajXl5Q-105" value="数据统计" style="rounded=0;whiteSpace=wrap;html=1;fillColor=#dae8fc;strokeColor=#6c8ebf;" vertex="1" parent="1">
          <mxGeometry x="84" y="1887" width="91" height="109" as="geometry" />
        </mxCell>
        <mxCell id="Af63RQCoWhY6OaajXl5Q-106" style="edgeStyle=orthogonalEdgeStyle;rounded=0;orthogonalLoop=1;jettySize=auto;html=1;exitX=1;exitY=0.5;exitDx=0;exitDy=0;entryX=0;entryY=0.5;entryDx=0;entryDy=0;" edge="1" source="Af63RQCoWhY6OaajXl5Q-107" target="Af63RQCoWhY6OaajXl5Q-108" parent="1">
          <mxGeometry relative="1" as="geometry" />
        </mxCell>
        <mxCell id="Af63RQCoWhY6OaajXl5Q-107" value="数据分析" style="rounded=0;whiteSpace=wrap;html=1;fillColor=#dae8fc;strokeColor=#6c8ebf;" vertex="1" parent="1">
          <mxGeometry x="240" y="1887" width="91" height="109" as="geometry" />
        </mxCell>
        <mxCell id="Af63RQCoWhY6OaajXl5Q-108" value="经营预测" style="rounded=0;whiteSpace=wrap;html=1;fillColor=#dae8fc;strokeColor=#6c8ebf;" vertex="1" parent="1">
          <mxGeometry x="396" y="1887" width="91" height="109" as="geometry" />
        </mxCell>
        <mxCell id="Af63RQCoWhY6OaajXl5Q-109" style="edgeStyle=orthogonalEdgeStyle;rounded=0;orthogonalLoop=1;jettySize=auto;html=1;entryX=0;entryY=0.5;entryDx=0;entryDy=0;" edge="1" source="Af63RQCoWhY6OaajXl5Q-110" target="Af63RQCoWhY6OaajXl5Q-112" parent="1">
          <mxGeometry relative="1" as="geometry" />
        </mxCell>
        <mxCell id="Af63RQCoWhY6OaajXl5Q-110" value="工作台" style="rounded=0;whiteSpace=wrap;html=1;fillColor=#dae8fc;strokeColor=#6c8ebf;" vertex="1" parent="1">
          <mxGeometry x="83.5" y="2042" width="91" height="109" as="geometry" />
        </mxCell>
        <mxCell id="Af63RQCoWhY6OaajXl5Q-111" style="edgeStyle=orthogonalEdgeStyle;rounded=0;orthogonalLoop=1;jettySize=auto;html=1;exitX=1;exitY=0.5;exitDx=0;exitDy=0;entryX=0;entryY=0.5;entryDx=0;entryDy=0;" edge="1" source="Af63RQCoWhY6OaajXl5Q-112" target="Af63RQCoWhY6OaajXl5Q-113" parent="1">
          <mxGeometry relative="1" as="geometry" />
        </mxCell>
        <mxCell id="Af63RQCoWhY6OaajXl5Q-112" value="主动通知&lt;br&gt;基于优先级&lt;br&gt;微信&lt;br&gt;短信&lt;br&gt;电话" style="rounded=0;whiteSpace=wrap;html=1;fillColor=#dae8fc;strokeColor=#6c8ebf;" vertex="1" parent="1">
          <mxGeometry x="239.5" y="2042" width="91" height="109" as="geometry" />
        </mxCell>
        <mxCell id="Af63RQCoWhY6OaajXl5Q-113" value="管理干预" style="rounded=0;whiteSpace=wrap;html=1;fillColor=#dae8fc;strokeColor=#6c8ebf;" vertex="1" parent="1">
          <mxGeometry x="395.5" y="2042" width="91" height="109" as="geometry" />
        </mxCell>
        <mxCell id="Af63RQCoWhY6OaajXl5Q-114" style="edgeStyle=orthogonalEdgeStyle;rounded=0;orthogonalLoop=1;jettySize=auto;html=1;entryX=0;entryY=0.5;entryDx=0;entryDy=0;" edge="1" source="Af63RQCoWhY6OaajXl5Q-115" target="Af63RQCoWhY6OaajXl5Q-117" parent="1">
          <mxGeometry relative="1" as="geometry" />
        </mxCell>
        <mxCell id="Af63RQCoWhY6OaajXl5Q-115" value="效率提升&lt;br&gt;能力提升" style="rounded=0;whiteSpace=wrap;html=1;fillColor=#dae8fc;strokeColor=#6c8ebf;" vertex="1" parent="1">
          <mxGeometry x="83.5" y="2197" width="91" height="109" as="geometry" />
        </mxCell>
        <mxCell id="Af63RQCoWhY6OaajXl5Q-116" style="edgeStyle=orthogonalEdgeStyle;rounded=0;orthogonalLoop=1;jettySize=auto;html=1;exitX=1;exitY=0.5;exitDx=0;exitDy=0;entryX=0;entryY=0.5;entryDx=0;entryDy=0;" edge="1" source="Af63RQCoWhY6OaajXl5Q-117" target="Af63RQCoWhY6OaajXl5Q-118" parent="1">
          <mxGeometry relative="1" as="geometry" />
        </mxCell>
        <mxCell id="Af63RQCoWhY6OaajXl5Q-117" value="单位时间内做更多有价值的事" style="rounded=0;whiteSpace=wrap;html=1;fillColor=#dae8fc;strokeColor=#6c8ebf;" vertex="1" parent="1">
          <mxGeometry x="239.5" y="2197" width="91" height="109" as="geometry" />
        </mxCell>
        <mxCell id="Af63RQCoWhY6OaajXl5Q-118" value="营收&lt;div&gt;利润率&lt;/div&gt;&lt;div&gt;市场规模&lt;/div&gt;&lt;div&gt;持续扩大&lt;/div&gt;" style="rounded=0;whiteSpace=wrap;html=1;fillColor=#dae8fc;strokeColor=#6c8ebf;" vertex="1" parent="1">
          <mxGeometry x="395.5" y="2197" width="91" height="109" as="geometry" />
        </mxCell>
      </root>
    </mxGraphModel>
  </diagram>
</mxfile>
